# xmcd
#
# Track frame offsets:
#	150
#	21945
#	50507
#	67995
#	91317
#	113402
#	141495
#	160942
#	180495
#	203077
#	224375
#	242440
#	259535
#	292565
#
# Disc length: 4262 seconds
# Revision: 0
# Processed by: cddbd v1.5.2PL0 Copyright (c) Steve Scherf et al.
# Submitted via: dBpowerAMP V12.0
#
DISCID=b910a40e
DTITLE=Time Bandits - Greatest Hits
DYEAR=1995
DGENRE=R&B
TTITLE0=Live It Up
TTITLE1=Sister Paradise
TTITLE2=I'm Specialized In You
TTITLE3=Listen To The Man With The Golden Voice
TTITLE4=I'm Only Shooting Love
TTITLE5=How Does It Feel
TTITLE6=Star
TTITLE7=Endless Road
TTITLE8=Only A Fool
TTITLE9=I Won't Steal Away
TTITLE10=We'll Be Dancing
TTITLE11=Wildfire
TTITLE12=I'm Only Shooting Love (USA Remix)
TTITLE13=I'm Specialized In You (Extended Version)
EXTD=
EXTT0=
EXTT1=
EXTT2=
EXTT3=
EXTT4=
EXTT5=
EXTT6=
EXTT7=
EXTT8=
EXTT9=
EXTT10=
EXTT11=
EXTT12=
EXTT13=
PLAYORDER=
